<svg xmlns="http://www.w3.org/2000/svg" viewBox="0 0 120 120" width="512" height="512" fill="none">
  <path d="M60 8 L102 22 L102 64 C 102 88 84 104 60 114 C 36 104 18 88 18 64 L18 22 Z" fill="#F4EFE6"></path>
  <path d="M60 18 L94 28 L94 64 C 94 84 80 96 60 104 C 40 96 26 84 26 64 L26 28 Z" fill="#F4EFE6"></path>
  <g fill="#0E1116">
    <rect x="50" y="30" width="20" height="10" rx="3"></rect>
    <rect x="48" y="44" width="24" height="10" rx="3"></rect>
    <rect x="46" y="58" width="28" height="10" rx="3"></rect>
    <rect x="48" y="72" width="24" height="10" rx="3"></rect>
    <rect x="50" y="86" width="20" height="10" rx="3"></rect>
  </g>
</svg>