<svg xmlns="http://www.w3.org/2000/svg" viewBox="0 0 64 64" fill="none">
  <defs>
    <linearGradient id="plate" x1="7" y1="5" x2="58" y2="61" gradientUnits="userSpaceOnUse">
      <stop stop-color="#0072BC"/>
      <stop offset="0.52" stop-color="#005587"/>
      <stop offset="1" stop-color="#003B5C"/>
    </linearGradient>
    <radialGradient id="glow" cx="0" cy="0" r="1" gradientUnits="userSpaceOnUse" gradientTransform="translate(45 17) rotate(129) scale(31 30)">
      <stop stop-color="#9DDBFF" stop-opacity="0.82"/>
      <stop offset="1" stop-color="#9DDBFF" stop-opacity="0"/>
    </radialGradient>
    <linearGradient id="beam" x1="20" y1="46" x2="47" y2="19" gradientUnits="userSpaceOnUse">
      <stop stop-color="#FFE680"/>
      <stop offset="0.5" stop-color="#FFD100"/>
      <stop offset="1" stop-color="#FFB81C"/>
    </linearGradient>
  </defs>
  <rect x="2" y="2" width="60" height="60" rx="18" fill="url(#plate)"/>
  <rect x="2.75" y="2.75" width="58.5" height="58.5" rx="17.25" stroke="#6BBBE8" stroke-opacity="0.55" stroke-width="1.5"/>
  <circle cx="45" cy="17" r="24" fill="url(#glow)"/>
  <rect x="16.5" y="15.5" width="31" height="33" rx="6" fill="#0A4E75" fill-opacity="0.42" stroke="#6BBBE8" stroke-width="1.4"/>
  <path d="M14.5 20H49.5M14.5 44H49.5" stroke="#FFD100" stroke-width="3.2" stroke-linecap="round"/>
  <path d="M22 22.5H42M22 41.5H42" stroke="#CFE8F6" stroke-width="1.5" stroke-linecap="round" stroke-opacity="0.62"/>
  <path d="M19.5 45.5L44.5 20.5" stroke="url(#beam)" stroke-width="4.1" stroke-linecap="round"/>
  <path d="M19.5 19.5L44.5 44.5" stroke="#FFFFFF" stroke-width="2.9" stroke-linecap="round" stroke-opacity="0.82"/>
  <circle cx="32" cy="32" r="8.8" fill="#F6FBFE"/>
  <circle cx="32" cy="32" r="8.8" stroke="#CFE8F6" stroke-width="1.35" stroke-opacity="0.36"/>
  <circle cx="32" cy="32" r="4.55" stroke="#005587" stroke-width="2"/>
  <path d="M25.9 32H38.1" stroke="#FFD100" stroke-width="1.8" stroke-linecap="round"/>
  <path d="M32 25.9V38.1" stroke="#B8DDF2" stroke-width="1.45" stroke-linecap="round"/>
  <circle cx="32" cy="32" r="1.65" fill="#005587"/>
  <circle cx="23.2" cy="23.1" r="1.3" fill="#FFD100"/>
  <circle cx="40.8" cy="40.9" r="1.3" fill="#FFD100"/>
</svg>
